<svg width="24" height="24" viewBox="0 0 24 24" fill="none" xmlns="http://www.w3.org/2000/svg">
<mask id="path-1-inside-1_885_1782" fill="white">
<path d="M19.0693 4.92634C17.6705 3.52864 15.8885 2.57696 13.9487 2.19167C12.0088 1.80637 9.99826 2.00475 8.17121 2.76173C6.34415 3.51871 4.78266 4.80029 3.6842 6.4444C2.58573 8.08851 1.99963 10.0213 2 11.9984C2 14.6501 3.0534 17.1933 4.9286 19.0688C6.8038 20.9443 9.3473 21.9987 11.9999 22C13.3126 22.0006 14.6126 21.7441 15.8266 21.245C17.0368 20.7343 18.1376 19.9961 19.0693 19.0705C19.9984 18.1418 20.7355 17.0393 21.2383 15.8259C21.7412 14.6124 22 13.3119 22 11.9984C22 10.685 21.7412 9.38441 21.2383 8.17097C20.7355 6.95754 19.9984 5.85501 19.0693 4.92634ZM18.3644 18.3557C16.9244 19.8014 15.0349 20.7139 13.0069 20.943V14.339H14.9002C15.1673 14.339 15.4234 14.2329 15.6123 14.0441C15.8011 13.8554 15.9072 13.5993 15.9072 13.3323C15.9072 13.0653 15.8011 12.8092 15.6123 12.6205C15.4234 12.4317 15.1673 12.3256 14.9002 12.3256H13.0069V9.56724C13.0069 9.30024 13.113 9.04419 13.3019 8.85539C13.4907 8.6666 13.7469 8.56054 14.014 8.56054H15.2224C15.4895 8.56054 15.7457 8.45447 15.9345 8.26568C16.1234 8.07689 16.2295 7.82083 16.2295 7.55384C16.2295 7.28684 16.1234 7.03078 15.9345 6.84199C15.7457 6.6532 15.4895 6.54713 15.2224 6.54713H13.5105C12.8427 6.54713 12.2024 6.81229 11.7302 7.28427C11.2581 7.75626 10.9929 8.3964 10.9929 9.06389V12.3256H9.1097C8.84261 12.3256 8.58647 12.4317 8.39761 12.6205C8.20876 12.8092 8.10266 13.0653 8.10266 13.3323C8.10266 13.5993 8.20876 13.8554 8.39761 14.0441C8.58647 14.2329 8.84261 14.339 9.1097 14.339H10.9929V20.943C9.12268 20.7297 7.36679 19.9344 5.97322 18.6695C4.57965 17.4046 3.61883 15.734 3.22647 13.8936C2.83412 12.0533 3.03006 10.1362 3.78662 8.41321C4.54318 6.69021 5.82212 5.24837 7.44279 4.29134C9.06347 3.33431 10.944 2.91046 12.8186 3.07967C14.6933 3.24888 16.4675 4.00259 17.8904 5.23434C19.3134 6.46609 20.3133 8.11362 20.7489 9.94423C21.1845 11.7748 21.0338 13.696 20.318 15.4363C19.8622 16.5268 19.1986 17.5183 18.3644 18.3557Z"/>
</mask>
<path d="M19.0693 4.92634C17.6705 3.52864 15.8885 2.57696 13.9487 2.19167C12.0088 1.80637 9.99826 2.00475 8.17121 2.76173C6.34415 3.51871 4.78266 4.80029 3.6842 6.4444C2.58573 8.08851 1.99963 10.0213 2 11.9984C2 14.6501 3.0534 17.1933 4.9286 19.0688C6.8038 20.9443 9.3473 21.9987 11.9999 22C13.3126 22.0006 14.6126 21.7441 15.8266 21.245C17.0368 20.7343 18.1376 19.9961 19.0693 19.0705C19.9984 18.1418 20.7355 17.0393 21.2383 15.8259C21.7412 14.6124 22 13.3119 22 11.9984C22 10.685 21.7412 9.38441 21.2383 8.17097C20.7355 6.95754 19.9984 5.85501 19.0693 4.92634ZM18.3644 18.3557C16.9244 19.8014 15.0349 20.7139 13.0069 20.943V14.339H14.9002C15.1673 14.339 15.4234 14.2329 15.6123 14.0441C15.8011 13.8554 15.9072 13.5993 15.9072 13.3323C15.9072 13.0653 15.8011 12.8092 15.6123 12.6205C15.4234 12.4317 15.1673 12.3256 14.9002 12.3256H13.0069V9.56724C13.0069 9.30024 13.113 9.04419 13.3019 8.85539C13.4907 8.6666 13.7469 8.56054 14.014 8.56054H15.2224C15.4895 8.56054 15.7457 8.45447 15.9345 8.26568C16.1234 8.07689 16.2295 7.82083 16.2295 7.55384C16.2295 7.28684 16.1234 7.03078 15.9345 6.84199C15.7457 6.6532 15.4895 6.54713 15.2224 6.54713H13.5105C12.8427 6.54713 12.2024 6.81229 11.7302 7.28427C11.2581 7.75626 10.9929 8.3964 10.9929 9.06389V12.3256H9.1097C8.84261 12.3256 8.58647 12.4317 8.39761 12.6205C8.20876 12.8092 8.10266 13.0653 8.10266 13.3323C8.10266 13.5993 8.20876 13.8554 8.39761 14.0441C8.58647 14.2329 8.84261 14.339 9.1097 14.339H10.9929V20.943C9.12268 20.7297 7.36679 19.9344 5.97322 18.6695C4.57965 17.4046 3.61883 15.734 3.22647 13.8936C2.83412 12.0533 3.03006 10.1362 3.78662 8.41321C4.54318 6.69021 5.82212 5.24837 7.44279 4.29134C9.06347 3.33431 10.944 2.91046 12.8186 3.07967C14.6933 3.24888 16.4675 4.00259 17.8904 5.23434C19.3134 6.46609 20.3133 8.11362 20.7489 9.94423C21.1845 11.7748 21.0338 13.696 20.318 15.4363C19.8622 16.5268 19.1986 17.5183 18.3644 18.3557Z" fill="white"/>
<path d="M19.0693 4.92634L21.1901 2.80449L21.1898 2.80419L19.0693 4.92634ZM2 11.9984L5 11.9984L5 11.9979L2 11.9984ZM11.9999 22L11.9984 25L11.9986 25L11.9999 22ZM15.8266 21.245L16.9673 24.0197L16.9802 24.0144L16.993 24.009L15.8266 21.245ZM19.0693 19.0705L21.1837 21.1987L21.1901 21.1924L19.0693 19.0705ZM22 11.9984L19 11.9984L22 11.9984ZM18.3644 18.3557L16.239 16.2384L16.2389 16.2386L18.3644 18.3557ZM13.0069 20.943H10.0069V24.3009L13.3436 23.924L13.0069 20.943ZM13.0069 14.339V11.339H10.0069V14.339H13.0069ZM13.0069 12.3256H10.0069V15.3256H13.0069V12.3256ZM14.014 8.56054L14.014 5.56054L14.014 8.56054ZM13.5105 6.54713L13.5105 3.54713L13.5105 6.54713ZM10.9929 12.3256V15.3256H13.9929V12.3256H10.9929ZM10.9929 14.339H13.9929V11.339H10.9929V14.339ZM10.9929 20.943L10.6529 23.9236L13.9929 24.3046V20.943H10.9929ZM20.318 15.4363L23.0859 16.5934L23.0893 16.5854L23.0925 16.5774L20.318 15.4363ZM21.1898 2.80419C19.3713 0.987105 17.0547 -0.250003 14.5331 -0.750852L13.3642 5.13419C14.7223 5.40393 15.9697 6.07017 16.9488 7.04849L21.1898 2.80419ZM14.5331 -0.750852C12.0115 -1.2517 9.39797 -0.993829 7.02291 -0.00980648L9.3195 5.53327C10.5986 5.00334 12.0061 4.86444 13.3642 5.13419L14.5331 -0.750852ZM7.02291 -0.00980648C4.64785 0.97422 2.61784 2.64026 1.18972 4.77779L6.17867 8.11101C6.94747 6.96031 8.04045 6.0632 9.3195 5.53327L7.02291 -0.00980648ZM1.18972 4.77779C-0.238415 6.91534 -1.00048 9.42833 -1 11.999L5 11.9979C4.99974 10.6143 5.40988 9.26169 6.17867 8.11101L1.18972 4.77779ZM-1 11.9984C-1 15.4458 0.369505 18.752 2.8071 21.19L7.0501 16.9477C5.73729 15.6347 5 13.8544 5 11.9984L-1 11.9984ZM2.8071 21.19C5.24466 23.6279 8.55072 24.9983 11.9984 25L12.0014 19C10.1439 18.9991 8.36294 18.2607 7.0501 16.9477L2.8071 21.19ZM11.9986 25C13.703 25.0007 15.391 24.6677 16.9673 24.0197L14.686 18.4703C13.8343 18.8204 12.9222 19.0004 12.0012 19L11.9986 25ZM16.993 24.009C18.5569 23.349 19.9796 22.395 21.1837 21.1987L16.9549 16.9423C16.2957 17.5972 15.5167 18.1196 14.6603 18.481L16.993 24.009ZM21.1901 21.1924C22.3979 19.9852 23.3561 18.5519 24.0098 16.9744L18.4669 14.6774C18.1149 15.5267 17.599 16.2985 16.9485 16.9486L21.1901 21.1924ZM24.0098 16.9744C24.6635 15.3968 25 13.706 25 11.9984L19 11.9984C19 12.9177 18.8189 13.828 18.4669 14.6774L24.0098 16.9744ZM25 11.9984C25 10.2908 24.6635 8.6 24.0098 7.02248L18.4669 9.31947C18.8189 10.1688 19 11.0791 19 11.9984H25ZM24.0098 7.02248C23.3561 5.44496 22.3979 4.01169 21.1901 2.80449L16.9485 7.0482C17.599 7.69833 18.1149 8.47012 18.4669 9.31947L24.0098 7.02248ZM16.2389 16.2386C15.2798 17.2015 14.0212 17.8093 12.6702 17.9619L13.3436 23.924C16.0485 23.6185 18.5689 22.4014 20.4899 20.4729L16.2389 16.2386ZM16.0069 20.943V14.339H10.0069V20.943H16.0069ZM13.0069 17.339H14.9002V11.339H13.0069V17.339ZM14.9002 17.339C15.9626 17.339 16.9817 16.9171 17.7332 16.1658L13.4913 11.9225C13.8651 11.5488 14.3719 11.339 14.9002 11.339V17.339ZM17.7332 16.1658C18.4848 15.4145 18.9072 14.3953 18.9072 13.3323H12.9072C12.9072 12.8033 13.1174 12.2962 13.4913 11.9225L17.7332 16.1658ZM18.9072 13.3323C18.9072 12.2693 18.4848 11.2501 17.7332 10.4988L13.4913 14.7421C13.1174 14.3684 12.9072 13.8613 12.9072 13.3323H18.9072ZM17.7332 10.4988C16.9817 9.74749 15.9626 9.3256 14.9002 9.3256V15.3256C14.3719 15.3256 13.8651 15.1158 13.4913 14.7421L17.7332 10.4988ZM14.9002 9.3256H13.0069V15.3256H14.9002V9.3256ZM16.0069 12.3256V9.56724H10.0069V12.3256H16.0069ZM16.0069 9.56724C16.0069 10.0962 15.7967 10.6033 15.4229 10.9771L11.1809 6.73372C10.4294 7.48504 10.0069 8.50427 10.0069 9.56724H16.0069ZM15.4229 10.9771C15.049 11.3508 14.5422 11.5605 14.014 11.5605L14.014 5.56054C12.9516 5.56054 11.9325 5.98243 11.1809 6.73372L15.4229 10.9771ZM14.014 11.5605H15.2224V5.56054H14.014V11.5605ZM15.2224 11.5605C16.2848 11.5605 17.3039 11.1386 18.0555 10.3874L13.8135 6.144C14.1874 5.7703 14.6942 5.56054 15.2224 5.56054V11.5605ZM18.0555 10.3874C18.807 9.63604 19.2295 8.61681 19.2295 7.55384H13.2295C13.2295 7.02484 13.4397 6.51774 13.8135 6.144L18.0555 10.3874ZM19.2295 7.55384C19.2295 6.49086 18.807 5.47163 18.0555 4.72031L13.8135 8.96367C13.4397 8.58993 13.2295 8.08283 13.2295 7.55384H19.2295ZM18.0555 4.72031C17.3039 3.96902 16.2848 3.54713 15.2224 3.54713V9.54713C14.6942 9.54713 14.1874 9.33737 13.8135 8.96367L18.0555 4.72031ZM15.2224 3.54713H13.5105V9.54713H15.2224V3.54713ZM13.5105 3.54713C12.0474 3.54713 10.6441 4.12812 9.60928 5.1626L13.8512 9.40595C13.7607 9.49646 13.6381 9.54713 13.5105 9.54713L13.5105 3.54713ZM9.60928 5.1626C8.57442 6.19711 7.99286 7.60043 7.99286 9.06389H13.9929C13.9929 9.19238 13.9418 9.3154 13.8512 9.40595L9.60928 5.1626ZM7.99286 9.06389V12.3256H13.9929V9.06389H7.99286ZM10.9929 9.3256H9.1097V15.3256H10.9929V9.3256ZM9.1097 9.3256C8.04729 9.3256 7.02819 9.74749 6.27665 10.4988L10.5186 14.7421C10.1447 15.1158 9.63794 15.3256 9.1097 15.3256V9.3256ZM6.27665 10.4988C5.52507 11.2501 5.10266 12.2693 5.10266 13.3323H11.1027C11.1027 13.8613 10.8924 14.3684 10.5186 14.7421L6.27665 10.4988ZM5.10266 13.3323C5.10266 14.3953 5.52507 15.4145 6.27665 16.1658L10.5186 11.9225C10.8924 12.2962 11.1027 12.8033 11.1027 13.3323H5.10266ZM6.27665 16.1658C7.02819 16.9171 8.04729 17.339 9.1097 17.339V11.339C9.63794 11.339 10.1447 11.5488 10.5186 11.9225L6.27665 16.1658ZM9.1097 17.339H10.9929V11.339H9.1097V17.339ZM7.99286 14.339V20.943H13.9929V14.339H7.99286ZM11.3328 17.9623C10.0871 17.8202 8.91757 17.2905 7.98951 16.4481L3.95693 20.8909C5.81601 22.5783 8.1583 23.6391 10.6529 23.9236L11.3328 17.9623ZM7.98951 16.4481C7.06147 15.6057 6.42175 14.4933 6.16053 13.2681L0.292413 14.5192C0.815906 16.9746 2.09783 19.2034 3.95693 20.8909L7.98951 16.4481ZM6.16053 13.2681C5.89932 12.0429 6.02976 10.7665 6.53348 9.61935L1.03976 7.20708C0.0303601 9.50589 -0.231082 12.0637 0.292413 14.5192L6.16053 13.2681ZM6.53348 9.61935C7.03721 8.47215 7.88883 7.51196 8.96823 6.87456L5.91736 1.70811C3.75542 2.98477 2.04915 4.90828 1.03976 7.20708L6.53348 9.61935ZM8.96823 6.87456C10.0476 6.23715 11.3002 5.95481 12.549 6.06752L13.0883 0.0918161C10.5877 -0.133888 8.07929 0.431459 5.91736 1.70811L8.96823 6.87456ZM12.549 6.06752C13.7977 6.18024 14.9794 6.68229 15.927 7.50259L19.8539 2.96609C17.9556 1.32289 15.5889 0.317521 13.0883 0.0918161L12.549 6.06752ZM15.927 7.50259C16.8747 8.32288 17.5404 9.41993 17.8304 10.6387L23.6674 9.24975C23.0863 6.80731 21.7522 4.6093 19.8539 2.96609L15.927 7.50259ZM17.8304 10.6387C18.1204 11.8575 18.0201 13.1365 17.5435 14.2952L23.0925 16.5774C24.0475 14.2555 24.2486 11.6922 23.6674 9.24975L17.8304 10.6387ZM17.5502 14.2792C17.2443 15.011 16.799 15.6764 16.239 16.2384L20.4897 20.473C21.5983 19.3602 22.4801 18.0426 23.0859 16.5934L17.5502 14.2792Z" fill="white" mask="url(#path-1-inside-1_885_1782)"/>
</svg>
