<svg width="24" height="24" viewBox="0 0 24 24" fill="none" xmlns="http://www.w3.org/2000/svg">
<path d="M11.9939 2C6.47391 2 2.00391 6.48 2.00391 12C2.00391 17.52 6.47391 22 11.9939 22C17.5239 22 22.0039 17.52 22.0039 12C22.0039 6.48 17.5239 2 11.9939 2ZM12.0039 20C7.58391 20 4.00391 16.42 4.00391 12C4.00391 7.58 7.58391 4 12.0039 4C16.4239 4 20.0039 7.58 20.0039 12C20.0039 16.42 16.4239 20 12.0039 20ZM11.7839 7H11.7239C11.3239 7 11.0039 7.32 11.0039 7.72V12.44C11.0039 12.79 11.1839 13.12 11.4939 13.3L15.6439 15.79C15.9839 15.99 16.4239 15.89 16.6239 15.55C16.8339 15.21 16.7239 14.76 16.3739 14.56L12.5039 12.26V7.72C12.5039 7.32 12.1839 7 11.7839 7Z" fill="white"/>
</svg>
