<?xml version="1.0" encoding="UTF-8"?>
<svg id="Capa_1" data-name="Capa 1" xmlns="http://www.w3.org/2000/svg" viewBox="0 0 77.25 90.13">
  <defs>
    <style>
      .cls-1 {
        fill: #c81010;
        fill-rule: evenodd;
        stroke-width: 0px;
      }
    </style>
  </defs>
  <path class="cls-1" d="m56.44,39.77c-.19-.65-.51-1.26-.93-1.79h.01c-.43-.53-.95-.97-1.54-1.29-.59-.33-1.25-.53-1.92-.61-.67-.07-1.35-.01-2,.17-.65.19-1.26.51-1.78.93l-12.88,10.3c-1.07.85-1.75,2.1-1.9,3.45-.15,1.36.24,2.72,1.1,3.79.85,1.07,2.09,1.75,3.45,1.9,1.36.15,2.72-.24,3.79-1.1l12.87-10.3c.53-.42.97-.94,1.3-1.53.32-.6.53-1.25.6-1.92.08-.67.02-1.35-.17-2Z"/>
  <path class="cls-1" d="m69.33,28.08l6.41-6.41c.93-.97,1.45-2.27,1.44-3.62-.01-1.35-.55-2.65-1.51-3.6-.95-.96-2.24-1.5-3.59-1.51-1.35,0-2.66.51-3.63,1.45l-6.41,6.41c-5.32-4.07-11.63-6.68-18.27-7.57v-2.93h2.95c1.37,0,2.68-.54,3.64-1.51.97-.96,1.51-2.27,1.51-3.64s-.54-2.67-1.51-3.64c-.96-.97-2.27-1.51-3.64-1.51h-15.45c-1.37,0-2.68.54-3.64,1.51-.97.97-1.51,2.28-1.51,3.64s.54,2.68,1.51,3.64c.96.97,2.27,1.51,3.64,1.51h2.2v2.93c-6.64.89-12.95,3.5-18.27,7.57l-6.41-6.41c-.97-.97-2.28-1.51-3.65-1.51s-2.67.54-3.64,1.51c-.96.96-1.5,2.27-1.5,3.64s.54,2.67,1.5,3.64l6.41,6.41C2.8,34.77,0,42.99,0,51.5c0,10.25,4.06,20.07,11.31,27.31,7.24,7.25,17.07,11.32,27.31,11.32s20.07-4.07,27.31-11.32c7.25-7.24,11.32-17.06,11.32-27.31,0-8.51-2.81-16.73-7.92-23.42Zm-10.68,43.45c-5.31,5.31-12.52,8.3-20.03,8.3s-14.72-2.99-20.03-8.3-8.29-12.52-8.29-20.03,2.98-14.72,8.29-20.03,12.52-8.29,20.03-8.29,14.72,2.98,20.03,8.29,8.3,12.52,8.3,20.03-2.99,14.72-8.3,20.03Z"/>
</svg>