<svg width="37" height="37" viewBox="0 0 37 37" fill="none" xmlns="http://www.w3.org/2000/svg">
<path d="M26.4151 23.2453H24.7457L24.154 22.6747C26.2965 20.1896 27.474 17.017 27.4717 13.7359C27.4717 11.0192 26.6661 8.36347 25.1568 6.10463C23.6475 3.84578 21.5022 2.08522 18.9923 1.04559C16.4824 0.00595153 13.7206 -0.266064 11.0561 0.263937C8.39163 0.793937 5.94413 2.10215 4.02314 4.02314C2.10215 5.94413 0.793937 8.39163 0.263937 11.0561C-0.266064 13.7206 0.00595153 16.4824 1.04559 18.9923C2.08522 21.5022 3.84578 23.6475 6.10463 25.1568C8.36347 26.6661 11.0192 27.4717 13.7359 27.4717C17.1381 27.4717 20.2657 26.2249 22.6747 24.154L23.2453 24.7457V26.4151L33.8113 36.96L36.96 33.8113L26.4151 23.2453ZM13.7359 23.2453C8.47397 23.2453 4.22642 18.9977 4.22642 13.7359C4.22642 8.47397 8.47397 4.22642 13.7359 4.22642C18.9977 4.22642 23.2453 8.47397 23.2453 13.7359C23.2453 18.9977 18.9977 23.2453 13.7359 23.2453Z" fill="#666666"/>
</svg>
