<svg width="289" height="95" viewBox="0 0 289 95" fill="none" xmlns="http://www.w3.org/2000/svg">
<path d="M0 43.928V10.8012H13.8651C16.4386 10.8012 18.3997 11.0741 19.7621 11.6132C21.1176 12.1522 22.2186 13.162 23.0512 14.629C23.8838 16.096 24.2966 17.8837 24.2966 19.9989C24.2966 21.8344 23.9801 23.4242 23.3402 24.7547C22.7003 26.0853 21.8264 27.1702 20.7117 27.9958C20.0029 28.5212 19.0258 28.9578 17.7873 29.3058C18.7781 29.7152 19.5006 30.1178 19.9548 30.5272C20.2575 30.8001 20.7048 31.3801 21.2828 32.2671C21.8608 33.1541 22.253 33.8433 22.4457 34.3277L26.471 43.928H17.0716L12.6265 33.8023C12.0623 32.4923 11.56 31.6394 11.1196 31.2504C10.521 30.7387 9.83976 30.4794 9.08285 30.4794H8.34659V43.928H0ZM8.35348 24.2225H11.8628C12.2412 24.2225 12.9775 24.0724 14.0647 23.7722C14.6151 23.6357 15.0624 23.2877 15.4133 22.735C15.7643 22.1755 15.9363 21.5342 15.9363 20.8109C15.9363 19.7396 15.661 18.9208 15.1106 18.3477C14.5601 17.7745 13.5279 17.488 12.0073 17.488H8.35348V24.2225Z" fill="white"/>
<path d="M48.0979 43.928H41.1206V40.0388C40.0815 41.6354 39.0288 42.7749 37.9691 43.4504C36.9094 44.1259 35.6089 44.4671 34.0676 44.4671C32.0102 44.4671 30.4 43.7097 29.2303 42.1949C28.0605 40.6802 27.4756 38.3466 27.4756 35.2011V19.9239H34.9828V33.12C34.9828 34.6279 35.2098 35.6992 35.664 36.3269C36.1181 36.9615 36.7512 37.2754 37.5769 37.2754C38.4714 37.2754 39.2008 36.8523 39.7719 36.0131C40.343 35.167 40.6251 33.6522 40.6251 31.4688V19.9239H48.0979V43.928ZM37.6319 10.2349H44.0587L38.1274 16.9899H34.5493L37.6319 10.2349Z" fill="white"/>
<path d="M50.2241 37.2617L57.6417 36.402C57.9445 37.4869 58.378 38.2647 58.9285 38.7287C59.4789 39.1927 60.2152 39.4315 61.1304 39.4315C62.135 39.4315 62.9125 39.1654 63.463 38.64C63.8896 38.2511 64.103 37.7598 64.103 37.173C64.103 36.5112 63.8208 35.9994 63.2566 35.6378C62.8506 35.3853 61.7841 35.0646 60.0432 34.6894C57.4491 34.1299 55.6463 33.6181 54.6348 33.1405C53.6233 32.6697 52.7769 31.8645 52.0819 30.7387C51.387 29.6129 51.0429 28.3233 51.0429 26.8767C51.0429 25.2938 51.4145 23.9359 52.1645 22.7896C52.9076 21.6433 53.9398 20.7904 55.2472 20.2309C56.5545 19.6646 58.3161 19.3848 60.518 19.3848C62.8437 19.3848 64.5571 19.6032 65.6718 20.0399C66.7796 20.4765 67.7017 21.152 68.4448 22.0732C69.188 22.9943 69.8004 24.2362 70.2889 25.7987L63.2015 26.6584C63.0158 25.8874 62.713 25.3279 62.2864 24.9662C61.7015 24.4818 60.9859 24.243 60.1533 24.243C59.3069 24.243 58.6945 24.4272 58.3092 24.7957C57.9239 25.1641 57.7312 25.6145 57.7312 26.1398C57.7312 26.7266 57.9789 27.1701 58.4675 27.4704C58.956 27.7706 60.0225 28.0435 61.6602 28.2823C64.1442 28.6303 65.9952 29.1079 67.2063 29.7289C68.4173 30.3429 69.3462 31.2231 69.9862 32.3694C70.6261 33.5157 70.9495 34.7712 70.9495 36.1427C70.9495 37.5278 70.6123 38.872 69.9311 40.1821C69.2499 41.4921 68.1834 42.5361 66.7177 43.3071C65.2521 44.085 63.2635 44.4671 60.7382 44.4671C57.1738 44.4671 54.6416 43.8393 53.1278 42.5907C51.6209 41.342 50.6507 39.5612 50.2241 37.2617Z" fill="white"/>
<path d="M82.4407 10.7944V19.9239H86.5555V26.6584H82.4407V35.1602C82.4407 36.1837 82.5233 36.8592 82.6815 37.1867C82.9292 37.6984 83.3559 37.9509 83.9683 37.9509C84.5187 37.9509 85.2894 37.753 86.2803 37.3641L86.8307 43.7097C84.9798 44.2078 83.2595 44.4534 81.6494 44.4534C79.7915 44.4534 78.4153 44.16 77.5346 43.5732C76.6538 42.9864 76.0001 42.0926 75.5804 40.8985C75.1606 39.7044 74.9473 37.7666 74.9473 35.0851V26.6448H72.1949V19.9102H74.9473V15.5024L82.4407 10.7944Z" fill="white"/>
<path d="M89.301 10.7944H96.7737V17.0513H89.301V10.7944ZM89.301 19.9239H96.7737V43.9212H89.301V19.9239Z" fill="white"/>
<path d="M115.001 34.5256L122.109 35.5218C121.717 37.3436 121.077 38.9198 120.183 40.2571C119.288 41.5877 118.146 42.6248 116.756 43.3617C115.366 44.0986 113.598 44.4671 111.458 44.4671C109.386 44.4671 107.666 44.2282 106.29 43.7574C104.914 43.2866 103.73 42.5156 102.739 41.458C101.749 40.3936 100.971 39.1518 100.407 37.7189C99.8426 36.286 99.5605 34.3891 99.5605 32.0283C99.5605 29.5583 99.9045 27.5045 100.586 25.8669C101.088 24.666 101.776 23.5811 102.643 22.6259C103.51 21.6706 104.405 20.961 105.327 20.4902C106.786 19.7533 108.65 19.3848 110.928 19.3848C114.114 19.3848 116.536 20.0876 118.208 21.4864C119.88 22.8851 121.05 24.939 121.724 27.6341L114.692 28.7872C114.472 27.7638 114.072 26.9927 113.488 26.4742C112.903 25.9556 112.125 25.6963 111.148 25.6963C109.909 25.6963 108.912 26.2422 108.148 27.3339C107.384 28.4256 106.999 30.0768 106.999 32.2876C106.999 34.2595 107.377 35.7538 108.134 36.7773C108.891 37.8008 109.861 38.3125 111.038 38.3125C112.015 38.3125 112.841 38.0054 113.508 37.3845C114.176 36.7568 114.671 35.8084 115.001 34.5256Z" fill="white"/>
<path d="M123.534 31.9942C123.534 28.3301 124.538 25.3142 126.548 22.9465C128.557 20.5721 131.268 19.3848 134.681 19.3848C138.582 19.3848 141.534 20.7768 143.53 23.5675C145.133 25.8123 145.938 28.5757 145.938 31.8577C145.938 35.5491 144.94 38.5718 142.952 40.9326C140.963 43.2935 138.211 44.4671 134.702 44.4671C131.571 44.4671 129.032 43.4913 127.098 41.5262C124.717 39.104 123.534 35.9244 123.534 31.9942ZM131.027 31.9737C131.027 34.1162 131.378 35.6924 132.08 36.7227C132.782 37.7462 133.669 38.2579 134.736 38.2579C135.816 38.2579 136.697 37.753 137.392 36.7431C138.087 35.7333 138.431 34.1162 138.431 31.885C138.431 29.8039 138.08 28.255 137.385 27.2384C136.69 26.2217 135.823 25.71 134.798 25.71C133.711 25.71 132.809 26.2285 132.101 27.2588C131.378 28.2892 131.027 29.8653 131.027 31.9737Z" fill="white"/>
<path d="M147.122 37.2617L154.539 36.402C154.842 37.4869 155.276 38.2647 155.826 38.7287C156.377 39.1927 157.113 39.4315 158.028 39.4315C159.033 39.4315 159.81 39.1654 160.361 38.64C160.787 38.2511 161.001 37.7598 161.001 37.173C161.001 36.5112 160.718 35.9994 160.154 35.6378C159.748 35.3853 158.682 35.0646 156.941 34.6894C154.347 34.1299 152.544 33.6181 151.532 33.1405C150.521 32.6697 149.674 31.8645 148.98 30.7387C148.285 29.6129 147.94 28.3233 147.94 26.8767C147.94 25.2938 148.312 23.9359 149.062 22.7896C149.805 21.6433 150.837 20.7904 152.145 20.2309C153.452 19.6646 155.214 19.3848 157.416 19.3848C159.741 19.3848 161.455 19.6032 162.569 20.0399C163.677 20.4765 164.599 21.152 165.342 22.0732C166.086 22.9943 166.698 24.2362 167.186 25.7987L160.099 26.6584C159.913 25.8874 159.611 25.3279 159.184 24.9662C158.599 24.4818 157.883 24.243 157.051 24.243C156.204 24.243 155.592 24.4272 155.207 24.7957C154.821 25.1641 154.629 25.6145 154.629 26.1398C154.629 26.7266 154.876 27.1701 155.365 27.4704C155.854 27.7706 156.92 28.0435 158.558 28.2823C161.042 28.6303 162.893 29.1079 164.104 29.7289C165.315 30.3429 166.244 31.2231 166.884 32.3694C167.524 33.5157 167.847 34.7712 167.847 36.1427C167.847 37.5278 167.51 38.872 166.829 40.1821C166.147 41.4921 165.081 42.5361 163.615 43.3071C162.15 44.085 160.161 44.4671 157.636 44.4671C154.071 44.4671 151.539 43.8393 150.025 42.5907C148.518 41.342 147.548 39.5612 147.122 37.2617Z" fill="white"/>
<path d="M0.385332 51.0924H11.7183L16.0877 71.2483L20.4295 51.0924H31.7556V84.2193H24.6957V58.9528L19.2598 84.2193H12.8743L7.44519 58.9528V84.2193H0.385332V51.0924Z" fill="white"/>
<path d="M58.0339 74.503H42.5105C42.6481 75.9768 42.9853 77.0822 43.5151 77.8054C44.2652 78.8426 45.2423 79.3679 46.4464 79.3679C47.2102 79.3679 47.9327 79.1428 48.6139 78.6925C49.0337 78.4059 49.4809 77.901 49.9626 77.1777L57.5867 78.017C56.4169 80.4256 55.0132 82.1586 53.3618 83.2026C51.7104 84.2466 49.3502 84.772 46.2675 84.772C43.5908 84.772 41.4853 84.3216 39.9508 83.4278C38.4164 82.5339 37.1434 81.1079 36.1388 79.1564C35.1273 77.205 34.625 74.9124 34.625 72.2786C34.625 68.5258 35.6364 65.4895 37.6594 63.1696C39.6824 60.8497 42.4761 59.6897 46.0405 59.6897C48.9305 59.6897 51.2149 60.2083 52.887 61.2522C54.5591 62.2962 55.832 63.7973 56.7128 65.7692C57.5867 67.7411 58.0271 70.3135 58.0271 73.4727V74.503H58.0339ZM50.1553 70.0952C50.0039 68.3143 49.5979 67.0452 48.9442 66.2741C48.2905 65.5031 47.4304 65.121 46.3639 65.121C45.1322 65.121 44.1482 65.701 43.4188 66.861C42.9509 67.5842 42.655 68.6623 42.5243 70.0952H50.1553Z" fill="white"/>
<path d="M60.456 60.2219H67.6673V64.1317C68.7476 62.535 69.8348 61.3955 70.9357 60.7064C72.0367 60.024 73.3854 59.6761 74.968 59.6761C77.1079 59.6761 78.7869 60.4334 79.9979 61.9482C81.209 63.463 81.8145 65.8033 81.8145 68.9625V84.2193H74.039V71.0231C74.039 69.5152 73.8051 68.4508 73.3372 67.823C72.8693 67.1953 72.2087 66.8882 71.3555 66.8882C70.4197 66.8882 69.6559 67.3113 69.071 68.1505C68.4861 68.9966 68.1971 70.5114 68.1971 72.6948V84.2193H60.456V60.2219Z" fill="white"/>
<path d="M106.579 51.0924V84.2193H99.3334V80.6712C98.3219 82.1791 97.393 83.1958 96.5535 83.7212C95.4388 84.4171 94.1933 84.7583 92.824 84.7583C90.0717 84.7583 87.973 83.5165 86.5211 81.0328C85.0692 78.5492 84.3467 75.5265 84.3467 71.9716C84.3467 67.9936 85.1518 64.9504 86.755 62.8421C88.3583 60.7337 90.3951 59.6761 92.8722 59.6761C94.0764 59.6761 95.1705 59.9149 96.1544 60.3993C97.1384 60.8838 98.0123 61.607 98.7692 62.5691V51.0924H106.579ZM98.8174 72.149C98.8174 70.2657 98.4802 68.8602 97.8059 67.9322C97.1315 67.0042 96.2852 66.5403 95.2599 66.5403C94.3585 66.5403 93.6085 66.9838 92.9961 67.8708C92.3905 68.7578 92.0809 70.2521 92.0809 72.3468C92.0809 74.3051 92.3974 75.738 93.0236 76.6523C93.6498 77.5666 94.4273 78.017 95.3562 78.017C96.3471 78.017 97.1728 77.5598 97.8265 76.6386C98.4871 75.7312 98.8174 74.2301 98.8174 72.149Z" fill="white"/>
<path d="M109.214 72.2854C109.214 68.6213 110.253 65.6055 112.332 63.2378C114.41 60.8633 117.217 59.6761 120.761 59.6761C124.807 59.6761 127.862 61.068 129.926 63.8587C131.584 66.1036 132.417 68.867 132.417 72.149C132.417 75.8403 131.385 78.863 129.328 81.2239C127.27 83.5847 124.414 84.7583 120.774 84.7583C117.527 84.7583 114.905 83.7826 112.903 81.8175C110.439 79.3952 109.214 76.2224 109.214 72.2854ZM116.976 72.2649C116.976 74.4074 117.341 75.9836 118.07 77.0139C118.8 78.0374 119.715 78.5492 120.816 78.5492C121.93 78.5492 122.846 78.0442 123.561 77.0344C124.277 76.0246 124.635 74.4075 124.635 72.1763C124.635 70.0952 124.27 68.5463 123.547 67.5296C122.825 66.513 121.93 66.0012 120.864 66.0012C119.735 66.0012 118.807 66.5198 118.07 67.5501C117.341 68.5872 116.976 70.1566 116.976 72.2649Z" fill="white"/>
<path d="M153.542 60.2219V65.5986L143.344 77.9351H154.168V84.2193H134.041V78.2558L143.722 66.5061H134.798V60.2219H153.542Z" fill="white"/>
<path d="M163.271 67.9936L155.874 67.0656C156.156 65.5304 156.555 64.3227 157.085 63.4357C157.608 62.5555 158.372 61.7913 159.356 61.1431C160.065 60.6791 161.042 60.3175 162.287 60.0582C163.533 59.7989 164.874 59.6761 166.319 59.6761C168.638 59.6761 170.503 59.833 171.914 60.1401C173.324 60.4471 174.494 61.0953 175.43 62.071C176.09 62.7465 176.607 63.7086 176.992 64.9504C177.37 66.1923 177.563 67.3795 177.563 68.5122V79.1087C177.563 80.2413 177.625 81.1215 177.742 81.7629C177.859 82.4043 178.127 83.2231 178.533 84.2125H171.267C170.978 83.5984 170.785 83.1276 170.696 82.8C170.606 82.4793 170.517 81.9676 170.427 81.2716C169.416 82.4316 168.404 83.2572 167.4 83.7553C166.03 84.4172 164.441 84.7515 162.624 84.7515C160.216 84.7515 158.386 84.0896 157.14 82.7659C155.888 81.4422 155.269 79.8046 155.269 77.86C155.269 76.0382 155.716 74.5371 156.617 73.3635C157.519 72.1899 159.177 71.3165 161.599 70.7434C164.503 70.0474 166.388 69.5629 167.248 69.2832C168.109 69.0034 169.024 68.6418 169.987 68.1847C169.987 67.052 169.787 66.2605 169.395 65.8102C169.003 65.3598 168.308 65.1347 167.324 65.1347C166.058 65.1347 165.108 65.3735 164.469 65.8579C163.98 66.2469 163.574 66.9565 163.271 67.9936ZM169.987 72.8313C168.92 73.2816 167.813 73.6842 166.657 74.0322C165.081 74.5303 164.09 75.0216 163.67 75.4992C163.237 75.9973 163.024 76.5636 163.024 77.1913C163.024 77.9146 163.237 78.5082 163.663 78.9654C164.09 79.4225 164.709 79.6545 165.535 79.6545C166.395 79.6545 167.2 79.4089 167.943 78.9108C168.687 78.4127 169.209 77.8054 169.519 77.089C169.829 76.3725 169.987 75.4446 169.987 74.2983V72.8313Z" fill="white"/>
<path d="M215.044 0H193.293V21.5683H215.044V0Z" fill="#EB5D5D"/>
<path d="M215.044 24.475H193.293V46.0432H215.044V24.475Z" fill="#EB5D5D"/>
<path d="M215.044 48.9499H193.293V70.5182H215.044V48.9499Z" fill="#EB5D5D"/>
<path d="M215.044 73.4317H193.293V95H215.044V73.4317Z" fill="#EB5D5D"/>
<path d="M239.698 24.475H217.947V46.0432H239.698V24.475Z" fill="#676767"/>
<path d="M239.698 48.9499H217.947V70.5182H239.698V48.9499Z" fill="#676767"/>
<path d="M239.698 73.4317H217.947V95H239.698V73.4317Z" fill="#676767"/>
<path d="M264.352 48.9499H242.602V70.5182H264.352V48.9499Z" fill="#A8A8A8"/>
<path d="M264.352 73.4317H242.602V95H264.352V73.4317Z" fill="#A8A8A8"/>
<path d="M289 73.4317H267.249V95H289V73.4317Z" fill="white"/>
</svg>
