<svg width="187" height="62" viewBox="0 0 187 62" fill="none" xmlns="http://www.w3.org/2000/svg">
<path d="M0 28.6688V7.04919H8.97155C10.6367 7.04919 11.9057 7.22732 12.7872 7.57911C13.6644 7.9309 14.3767 8.58995 14.9155 9.54736C15.4542 10.5048 15.7214 11.6715 15.7214 13.0519C15.7214 14.2498 15.5165 15.2874 15.1025 16.1557C14.6884 17.0241 14.123 17.7321 13.4017 18.2709C12.9431 18.6138 12.3108 18.8988 11.5094 19.1259C12.1505 19.3931 12.618 19.6558 12.9119 19.923C13.1078 20.1011 13.3972 20.4796 13.7712 21.0585C14.1452 21.6374 14.399 22.0872 14.5237 22.4034L17.1283 28.6688H11.0464L8.17012 22.0605C7.80502 21.2055 7.48 20.6489 7.19505 20.395C6.80769 20.061 6.3669 19.8918 5.87714 19.8918H5.40074V28.6688H0ZM5.40519 15.8084H7.6759C7.92079 15.8084 8.39719 15.7104 9.10067 15.5145C9.45686 15.4254 9.74626 15.1983 9.97333 14.8376C10.2004 14.4724 10.3117 14.0539 10.3117 13.5818C10.3117 12.8827 10.1336 12.3483 9.77743 11.9743C9.42124 11.6002 8.75338 11.4132 7.7694 11.4132H5.40519V15.8084Z" fill="white"/>
<path d="M31.1221 28.6688H26.6074V26.1306C25.9351 27.1726 25.2539 27.9163 24.5682 28.3571C23.8826 28.798 23.0411 29.0206 22.0437 29.0206C20.7125 29.0206 19.6706 28.5263 18.9137 27.5377C18.1568 26.5492 17.7784 25.0262 17.7784 22.9734V13.0029H22.6359V21.6152C22.6359 22.5993 22.7828 23.2984 23.0767 23.7081C23.3705 24.1222 23.7802 24.3271 24.3145 24.3271C24.8933 24.3271 25.3652 24.051 25.7348 23.5033C26.1043 22.9511 26.2869 21.9625 26.2869 20.5375V13.0029H31.1221V28.6688ZM24.3501 6.6796H28.5086L24.6706 11.0881H22.3554L24.3501 6.6796Z" fill="white"/>
<path d="M32.4979 24.3182L37.2976 23.7571C37.4935 24.4651 37.774 24.9728 38.1302 25.2756C38.4864 25.5784 38.9628 25.7342 39.555 25.7342C40.205 25.7342 40.7081 25.5606 41.0643 25.2177C41.3404 24.9639 41.4784 24.6432 41.4784 24.2603C41.4784 23.8283 41.2958 23.4944 40.9307 23.2583C40.668 23.0936 39.9779 22.8843 38.8515 22.6394C37.1729 22.2742 36.0064 21.9402 35.3519 21.6285C34.6974 21.3213 34.1498 20.7958 33.7001 20.061C33.2504 19.3263 33.0278 18.4847 33.0278 17.5406C33.0278 16.5075 33.2682 15.6213 33.7535 14.8732C34.2344 14.1251 34.9022 13.5685 35.7482 13.2033C36.5941 12.8337 37.7339 12.6511 39.1587 12.6511C40.6636 12.6511 41.7722 12.7936 42.4935 13.0786C43.2104 13.3636 43.807 13.8045 44.2878 14.4057C44.7687 15.0068 45.165 15.8173 45.4811 16.837L40.8951 17.3981C40.7749 16.8949 40.579 16.5298 40.303 16.2938C39.9245 15.9776 39.4615 15.8217 38.9227 15.8217C38.3751 15.8217 37.9788 15.942 37.7295 16.1824C37.4801 16.4229 37.3555 16.7168 37.3555 17.0597C37.3555 17.4427 37.5158 17.7321 37.8319 17.928C38.148 18.124 38.8381 18.3021 39.8978 18.4579C41.5051 18.685 42.7028 18.9968 43.4864 19.402C44.27 19.8028 44.8711 20.3772 45.2852 21.1253C45.6992 21.8734 45.9085 22.6928 45.9085 23.5879C45.9085 24.4918 45.6903 25.3691 45.2496 26.2241C44.8088 27.0791 44.1186 27.7604 43.1703 28.2636C42.2219 28.7712 40.9352 29.0206 39.3012 29.0206C36.9948 29.0206 35.3564 28.6109 34.3768 27.796C33.4018 26.9811 32.774 25.8189 32.4979 24.3182Z" fill="white"/>
<path d="M53.344 7.04474V13.0029H56.0065V17.3981H53.344V22.9466C53.344 23.6146 53.3974 24.0555 53.4998 24.2692C53.6601 24.6032 53.9361 24.7679 54.3324 24.7679C54.6886 24.7679 55.1873 24.6388 55.8284 24.385L56.1846 28.5263C54.9869 28.8514 53.8738 29.0117 52.832 29.0117C51.6298 29.0117 50.7393 28.8202 50.1694 28.4373C49.5995 28.0543 49.1765 27.4709 48.905 26.6917C48.6334 25.9124 48.4953 24.6477 48.4953 22.8976V17.3892H46.7144V12.994H48.4953V10.1173L53.344 7.04474Z" fill="white"/>
<path d="M57.783 7.04474H62.6183V11.1282H57.783V7.04474ZM57.783 13.0029H62.6183V28.6644H57.783V13.0029Z" fill="white"/>
<path d="M74.4126 22.5325L79.012 23.1826C78.7582 24.3716 78.3441 25.4003 77.7653 26.2731C77.1865 27.1414 76.4474 27.8183 75.548 28.2992C74.6486 28.7801 73.5044 29.0206 72.1197 29.0206C70.7795 29.0206 69.6664 28.8648 68.7759 28.5575C67.8855 28.2502 67.1196 27.747 66.4785 27.0568C65.8374 26.3621 65.3342 25.5517 64.9691 24.6165C64.6041 23.6814 64.4215 22.4434 64.4215 20.9027C64.4215 19.2907 64.6441 17.9503 65.0849 16.8816C65.4099 16.0978 65.8552 15.3898 66.4162 14.7663C66.9772 14.1429 67.556 13.6798 68.1526 13.3726C69.0965 12.8916 70.3031 12.6511 71.7768 12.6511C73.8383 12.6511 75.4055 13.1098 76.4875 14.0227C77.5694 14.9356 78.3263 16.2759 78.7626 18.0349L74.2123 18.7875C74.0698 18.1195 73.8116 17.6163 73.4331 17.2779C73.0547 16.9394 72.5515 16.7702 71.9193 16.7702C71.1179 16.7702 70.4723 17.1265 69.9781 17.839C69.4839 18.5515 69.2345 19.6291 69.2345 21.0719C69.2345 22.3588 69.4794 23.3341 69.9692 24.002C70.4589 24.67 71.0867 25.004 71.8481 25.004C72.4803 25.004 73.0146 24.8036 73.4465 24.3983C73.8784 23.9886 74.1989 23.3697 74.4126 22.5325Z" fill="white"/>
<path d="M79.9336 20.8804C79.9336 18.4891 80.5836 16.5209 81.8837 14.9756C83.1838 13.426 84.9381 12.6511 87.1465 12.6511C89.671 12.6511 91.581 13.5596 92.8722 15.3809C93.9096 16.8459 94.4305 18.6494 94.4305 20.7913C94.4305 23.2004 93.785 25.1732 92.4982 26.7139C91.2115 28.2547 89.4305 29.0206 87.1598 29.0206C85.134 29.0206 83.491 28.3838 82.2399 27.1013C80.6994 25.5205 79.9336 23.4454 79.9336 20.8804ZM84.7822 20.8671C84.7822 22.2653 85.0093 23.294 85.4635 23.9664C85.9176 24.6343 86.492 24.9683 87.1821 24.9683C87.8811 24.9683 88.451 24.6388 88.9007 23.9797C89.3504 23.3207 89.573 22.2653 89.573 20.8092C89.573 19.451 89.3459 18.4401 88.8962 17.7766C88.4466 17.1131 87.8856 16.7791 87.2221 16.7791C86.5187 16.7791 85.9354 17.1176 85.4768 17.79C85.0093 18.4624 84.7822 19.4911 84.7822 20.8671Z" fill="white"/>
<path d="M95.1964 24.3182L99.996 23.7571C100.192 24.4651 100.472 24.9728 100.829 25.2756C101.185 25.5784 101.661 25.7342 102.253 25.7342C102.903 25.7342 103.407 25.5606 103.763 25.2177C104.039 24.9639 104.177 24.6432 104.177 24.2603C104.177 23.8283 103.994 23.4944 103.629 23.2583C103.366 23.0936 102.676 22.8843 101.55 22.6394C99.8714 22.2742 98.7048 21.9402 98.0503 21.6285C97.3958 21.3213 96.8482 20.7958 96.3985 20.061C95.9488 19.3263 95.7262 18.4847 95.7262 17.5406C95.7262 16.5075 95.9666 15.6213 96.4519 14.8732C96.9328 14.1251 97.6006 13.5685 98.4466 13.2033C99.2925 12.8337 100.432 12.6511 101.857 12.6511C103.362 12.6511 104.471 12.7936 105.192 13.0786C105.909 13.3636 106.505 13.8045 106.986 14.4057C107.467 15.0068 107.863 15.8173 108.18 16.837L103.594 17.3981C103.473 16.8949 103.277 16.5298 103.001 16.2938C102.623 15.9776 102.16 15.8217 101.621 15.8217C101.073 15.8217 100.677 15.942 100.428 16.1824C100.179 16.4229 100.054 16.7168 100.054 17.0597C100.054 17.4427 100.214 17.7321 100.53 17.928C100.846 18.124 101.537 18.3021 102.596 18.4579C104.204 18.685 105.401 18.9968 106.185 19.402C106.968 19.8028 107.57 20.3772 107.984 21.1253C108.398 21.8734 108.607 22.6928 108.607 23.5879C108.607 24.4918 108.389 25.3691 107.948 26.2241C107.507 27.0791 106.817 27.7604 105.869 28.2636C104.92 28.7712 103.634 29.0206 102 29.0206C99.6933 29.0206 98.0548 28.6109 97.0753 27.796C96.1002 26.9811 95.4724 25.8189 95.1964 24.3182Z" fill="white"/>
<path d="M0.249332 33.3445H7.5824L10.4097 46.4989L13.2191 33.3445H20.5477V54.9642H15.9796V38.4745L12.4622 54.9642H8.3304L4.81748 38.4745V54.9642H0.249332V33.3445Z" fill="white"/>
<path d="M37.5514 48.623H27.5068C27.5959 49.5849 27.814 50.3063 28.1569 50.7783C28.6422 51.4552 29.2744 51.798 30.0536 51.798C30.5478 51.798 31.0153 51.6511 31.4561 51.3572C31.7277 51.1702 32.0171 50.8406 32.3287 50.3686L37.262 50.9163C36.5051 52.4883 35.5968 53.6193 34.5282 54.3006C33.4596 54.982 31.9325 55.3249 29.9378 55.3249C28.2058 55.3249 26.8434 55.031 25.8505 54.4476C24.8576 53.8643 24.034 52.9336 23.3839 51.66C22.7294 50.3864 22.4044 48.8902 22.4044 47.1713C22.4044 44.7221 23.0589 42.7405 24.3679 41.2265C25.6769 39.7124 27.4846 38.9554 29.7909 38.9554C31.6609 38.9554 33.1391 39.2938 34.221 39.9751C35.3029 40.6565 36.1266 41.6361 36.6965 42.9231C37.262 44.21 37.5469 45.8888 37.5469 47.9506V48.623H37.5514ZM32.4534 45.7463C32.3555 44.5841 32.0928 43.7558 31.6698 43.2526C31.2468 42.7494 30.6903 42.5 30.0001 42.5C29.2032 42.5 28.5665 42.8785 28.0945 43.6356C27.7918 44.1076 27.6003 44.8112 27.5157 45.7463H32.4534Z" fill="white"/>
<path d="M39.1186 39.3027H43.7847V41.8543C44.4837 40.8123 45.1872 40.0687 45.8996 39.6189C46.612 39.1736 47.4846 38.9465 48.5087 38.9465C49.8934 38.9465 50.9798 39.4408 51.7634 40.4294C52.547 41.4179 52.9388 42.9453 52.9388 45.0071V54.9642H47.9076V46.3519C47.9076 45.3678 47.7562 44.6731 47.4535 44.2635C47.1507 43.8538 46.7233 43.6534 46.1712 43.6534C45.5657 43.6534 45.0715 43.9295 44.693 44.4772C44.3146 45.0294 44.1275 46.018 44.1275 47.4429V54.9642H39.1186V39.3027Z" fill="white"/>
<path d="M68.9629 33.3445V54.9642H64.2746V52.6486C63.6201 53.6327 63.019 54.2962 62.4758 54.6391C61.7545 55.0933 60.9486 55.3159 60.0626 55.3159C58.2817 55.3159 56.9237 54.5055 55.9842 52.8846C55.0448 51.2637 54.5773 49.291 54.5773 46.9709C54.5773 44.3748 55.0982 42.3887 56.1356 41.0127C57.173 39.6367 58.4909 38.9465 60.0938 38.9465C60.873 38.9465 61.5809 39.1023 62.2176 39.4185C62.8543 39.7347 63.4197 40.2067 63.9095 40.8346V33.3445H68.9629ZM63.9406 47.0867C63.9406 45.8576 63.7225 44.9403 63.2861 44.3347C62.8498 43.7291 62.3022 43.4263 61.6388 43.4263C61.0555 43.4263 60.5702 43.7157 60.1739 44.2946C59.7821 44.8735 59.5818 45.8487 59.5818 47.2158C59.5818 48.4939 59.7866 49.429 60.1917 50.0257C60.5969 50.6224 61.1 50.9163 61.7011 50.9163C62.3422 50.9163 62.8765 50.618 63.2995 50.0168C63.7269 49.4245 63.9406 48.4449 63.9406 47.0867Z" fill="white"/>
<path d="M70.6682 47.1757C70.6682 44.7845 71.3405 42.8162 72.6851 41.271C74.0297 39.7213 75.8463 38.9465 78.1393 38.9465C80.7573 38.9465 82.7341 39.8549 84.0699 41.6762C85.1429 43.1413 85.6816 44.9448 85.6816 47.0867C85.6816 49.4958 85.0138 51.4685 83.6825 53.0093C82.3512 54.55 80.5035 55.3159 78.1482 55.3159C76.0467 55.3159 74.3503 54.6792 73.0547 53.3967C71.4607 51.8158 70.6682 49.7452 70.6682 47.1757ZM75.6905 47.1624C75.6905 48.5607 75.9265 49.5893 76.3984 50.2617C76.8704 50.9297 77.4625 51.2637 78.1749 51.2637C78.8962 51.2637 79.4884 50.9341 79.9514 50.2751C80.4145 49.616 80.646 48.5607 80.646 47.1045C80.646 45.7463 80.41 44.7355 79.9425 44.072C79.475 43.4085 78.8962 43.0745 78.2061 43.0745C77.4759 43.0745 76.8748 43.4129 76.3984 44.0853C75.9265 44.7622 75.6905 45.7864 75.6905 47.1624Z" fill="white"/>
<path d="M99.3504 39.3027V42.8117L92.752 50.8629H99.7556V54.9642H86.7324V51.0722L92.9969 43.404H87.2221V39.3027H99.3504Z" fill="white"/>
<path d="M105.646 44.3748L100.86 43.7692C101.042 42.7672 101.301 41.979 101.643 41.4001C101.982 40.8257 102.476 40.3269 103.113 39.9039C103.571 39.6011 104.204 39.3651 105.009 39.1959C105.815 39.0266 106.683 38.9465 107.618 38.9465C109.119 38.9465 110.326 39.0489 111.238 39.2493C112.151 39.4497 112.908 39.8727 113.513 40.5095C113.941 40.9504 114.275 41.5782 114.524 42.3887C114.769 43.1992 114.894 43.974 114.894 44.7132V51.6288C114.894 52.368 114.934 52.9425 115.009 53.3611C115.085 53.7796 115.259 54.314 115.521 54.9597H110.82C110.633 54.5589 110.508 54.2517 110.45 54.0379C110.392 53.8286 110.334 53.4946 110.277 53.0404C109.622 53.7975 108.968 54.3363 108.318 54.6614C107.432 55.0933 106.403 55.3115 105.228 55.3115C103.669 55.3115 102.485 54.8796 101.679 54.0157C100.869 53.1518 100.468 52.083 100.468 50.8139C100.468 49.6249 100.757 48.6453 101.341 47.8793C101.924 47.1134 102.997 46.5434 104.564 46.1694C106.443 45.7152 107.663 45.399 108.22 45.2164C108.776 45.0338 109.368 44.7978 109.992 44.4995C109.992 43.7603 109.863 43.2437 109.609 42.9498C109.355 42.6559 108.905 42.5089 108.269 42.5089C107.449 42.5089 106.835 42.6648 106.421 42.981C106.105 43.2348 105.842 43.6979 105.646 44.3748ZM109.992 47.532C109.302 47.8259 108.585 48.0886 107.837 48.3157C106.817 48.6408 106.176 48.9614 105.904 49.2731C105.624 49.5982 105.486 49.9678 105.486 50.3775C105.486 50.8495 105.624 51.2369 105.9 51.5353C106.176 51.8337 106.577 51.9851 107.111 51.9851C107.667 51.9851 108.188 51.8248 108.669 51.4997C109.15 51.1746 109.489 50.7783 109.689 50.3107C109.889 49.8431 109.992 49.2375 109.992 48.4894V47.532Z" fill="white"/>
<path d="M139.146 0H125.072V14.0761H139.146V0Z" fill="#EB5D5D"/>
<path d="M139.146 15.9731H125.072V30.0493H139.146V15.9731Z" fill="#EB5D5D"/>
<path d="M139.146 31.9463H125.072V46.0224H139.146V31.9463Z" fill="#EB5D5D"/>
<path d="M139.146 47.9239H125.072V62H139.146V47.9239Z" fill="#EB5D5D"/>
<path d="M155.099 15.9731H141.025V30.0493H155.099V15.9731Z" fill="#676767"/>
<path d="M155.099 31.9463H141.025V46.0224H155.099V31.9463Z" fill="#676767"/>
<path d="M155.099 47.9239H141.025V62H155.099V47.9239Z" fill="#676767"/>
<path d="M171.052 31.9463H156.978V46.0224H171.052V31.9463Z" fill="#A8A8A8"/>
<path d="M171.052 47.9239H156.978V62H171.052V47.9239Z" fill="#A8A8A8"/>
<path d="M187 47.9239H172.926V62H187V47.9239Z" fill="white"/>
</svg>
