<svg width="76" height="76" viewBox="0 0 76 76" fill="none" xmlns="http://www.w3.org/2000/svg">
<g filter="url(#filter0_d_788_1356)">
<circle cx="38" cy="34" r="34" fill="url(#paint0_linear_788_1356)"/>
</g>
<g clip-path="url(#clip0_788_1356)">
<path d="M17.6554 32.8957C17.6544 36.4665 18.5947 39.9532 20.3827 43.0264L17.4844 53.5265L28.3139 50.709C31.3092 52.327 34.6652 53.1748 38.0756 53.175H38.0846C49.3429 53.175 58.5075 44.0847 58.5123 32.9117C58.5145 27.4976 56.3915 22.4064 52.5343 18.5762C48.6777 14.7462 43.5487 12.6359 38.0838 12.6334C26.8241 12.6334 17.66 21.7232 17.6554 32.8957Z" fill="#22B52D"/>
<path d="M16.9276 32.8891C16.9265 36.5884 17.9005 40.1998 19.7522 43.383L16.75 54.2595L27.9678 51.341C31.0587 53.0132 34.5387 53.8948 38.0799 53.8961H38.089C49.7513 53.8961 59.245 44.4789 59.25 32.9059C59.252 27.2972 57.0526 22.0231 53.0576 18.0556C49.0621 14.0886 43.7496 11.9023 38.089 11.9C26.4247 11.9 16.9323 21.3159 16.9276 32.8891ZM23.6081 42.8348L23.1892 42.175C21.4285 39.397 20.4991 36.1868 20.5005 32.8904C20.5043 23.2711 28.394 15.445 38.0956 15.445C42.7939 15.447 47.2092 17.2642 50.5302 20.5615C53.851 23.859 55.6783 28.2424 55.6772 32.9046C55.6729 42.5239 47.783 50.351 38.089 50.351H38.082C34.9256 50.3493 31.8299 49.5082 29.1301 47.9188L28.4876 47.5407L21.8307 49.2725L23.6081 42.8346V42.8348Z" fill="url(#paint1_linear_788_1356)"/>
<path d="M32.7995 24.1143C32.4034 23.2408 31.9865 23.2231 31.6098 23.2078C31.3014 23.1946 30.9488 23.1956 30.5965 23.1956C30.2439 23.1956 29.6709 23.3273 29.1867 23.8519C28.7019 24.3771 27.3359 25.6461 27.3359 28.2273C27.3359 30.8086 29.2307 33.3031 29.4948 33.6534C29.7593 34.0032 33.1526 39.4695 38.5269 41.5724C42.9934 43.32 43.9023 42.9725 44.8717 42.8848C45.8412 42.7975 48.0001 41.6161 48.4405 40.391C48.8813 39.1661 48.8813 38.1161 48.7491 37.8967C48.617 37.6781 48.2644 37.5468 47.7356 37.2845C47.2067 37.0221 44.6072 35.7529 44.1226 35.5778C43.6378 35.4029 43.2854 35.3155 42.9328 35.8409C42.5802 36.3654 41.5676 37.5468 41.259 37.8967C40.9507 38.2474 40.6421 38.291 40.1135 38.0286C39.5844 37.7654 37.8816 37.2121 35.8613 35.4249C34.2895 34.0343 33.2283 32.317 32.9199 31.7917C32.6114 31.2672 32.8868 30.9829 33.152 30.7214C33.3895 30.4864 33.6809 30.1088 33.9455 29.8026C34.2092 29.4962 34.2971 29.2776 34.4734 28.9277C34.6499 28.5775 34.5616 28.2711 34.4296 28.0087C34.2971 27.7463 33.2697 25.1516 32.7995 24.1143Z" fill="white"/>
</g>
<defs>
<filter id="filter0_d_788_1356" x="0" y="0" width="76" height="76" filterUnits="userSpaceOnUse" color-interpolation-filters="sRGB">
<feFlood flood-opacity="0" result="BackgroundImageFix"/>
<feColorMatrix in="SourceAlpha" type="matrix" values="0 0 0 0 0 0 0 0 0 0 0 0 0 0 0 0 0 0 127 0" result="hardAlpha"/>
<feOffset dy="4"/>
<feGaussianBlur stdDeviation="2"/>
<feComposite in2="hardAlpha" operator="out"/>
<feColorMatrix type="matrix" values="0 0 0 0 0 0 0 0 0 0 0 0 0 0 0 0 0 0 0.25 0"/>
<feBlend mode="normal" in2="BackgroundImageFix" result="effect1_dropShadow_788_1356"/>
<feBlend mode="normal" in="SourceGraphic" in2="effect1_dropShadow_788_1356" result="shape"/>
</filter>
<linearGradient id="paint0_linear_788_1356" x1="4" y1="35.5111" x2="26.5405" y2="3.5005" gradientUnits="userSpaceOnUse">
<stop offset="0.340304" stop-color="#3FCA49"/>
<stop offset="1" stop-color="#23B62D"/>
<stop offset="1" stop-color="#2CB035"/>
</linearGradient>
<linearGradient id="paint1_linear_788_1356" x1="2141.75" y1="4247.85" x2="2141.75" y2="11.9" gradientUnits="userSpaceOnUse">
<stop stop-color="#F9F9F9"/>
<stop offset="1" stop-color="white"/>
</linearGradient>
<clipPath id="clip0_788_1356">
<rect width="42.5" height="42.5" fill="white" transform="translate(16.75 11.9)"/>
</clipPath>
</defs>
</svg>
